<svg width="216" height="95" viewBox="0 0 216 95" fill="none" xmlns="http://www.w3.org/2000/svg">
<path fill-rule="evenodd" clip-rule="evenodd" d="M35.743 52.678C37.3514 51.6284 39.0924 50.7978 40.92 50.208C43.598 49.04 46.2201 47.872 48.8871 46.694C49.7681 46.282 51.0511 45.641 52.6871 44.779C55.0011 43.735 62.211 39.516 59.217 36.209C57.7044 34.9737 56.0617 33.712 54.2891 32.424C54.1181 32.1616 53.8877 31.9434 53.6165 31.787C53.3452 31.6306 53.0407 31.5405 52.728 31.524C51.5691 31.6347 50.4001 31.5591 49.2651 31.3C48.9975 31.2375 48.7168 31.2628 48.4647 31.3721C48.2126 31.4814 48.0024 31.6689 47.8651 31.907C47.7284 32.145 47.6713 32.4205 47.7023 32.6932C47.7332 32.966 47.8505 33.2217 48.0371 33.423C48.7671 34.1825 49.6706 34.7532 50.67 35.086C51.6145 35.6998 52.6573 36.1469 53.7531 36.408C54.9531 37.085 59.0641 38.827 57.5831 40.631C57.6399 40.4243 57.6522 40.2079 57.6191 39.9962C57.5861 39.7844 57.5086 39.582 57.3916 39.4025C57.2746 39.2229 57.1208 39.0702 56.9404 38.9544C56.76 38.8387 56.5571 38.7625 56.3451 38.731C52.9714 41.1705 49.3342 43.223 45.5021 44.85L45.7321 26.29C45.7381 25.636 45.6201 24.19 47.0881 26.204C50.7361 31.225 55.4761 30.251 62.4441 29.447C58.3811 27.779 54.482 25.7369 50.7971 23.347C56.3321 26.319 62.7791 29.801 69.1151 28.259C64.6831 26.6704 60.4209 24.643 56.3921 22.207C61.9681 24.974 69.0001 28.69 75.1481 26.414C70.2935 25.0422 65.6 23.1537 61.1481 20.781C66.8611 23.242 74.7831 26.981 80.7201 23.992C75.1726 22.9276 69.7744 21.1956 64.6431 18.834C72.6741 21.745 80.7811 24.752 87.9371 19.634C77.8056 17.968 68.024 14.6195 58.9971 9.72699C55.7097 7.71632 52.9938 7.43865 50.8491 8.89398C50.1262 9.44492 49.5754 10.1908 49.2617 11.0439C48.948 11.897 48.8843 12.8219 49.0781 13.71C50.6421 17.783 53.132 20.004 45.749 18.389L45.8771 8.26801L45.842 8.048C46.6492 7.7631 47.3483 7.23516 47.8433 6.5368C48.3382 5.83845 48.6047 5.00394 48.6061 4.14798C48.6063 3.60457 48.4996 3.06645 48.2919 2.5643C48.0842 2.06215 47.7796 1.60584 47.3955 1.22141C47.0114 0.83697 46.5554 0.531927 46.0535 0.32373C45.5515 0.115534 45.0135 0.00825819 44.4701 0.00799561C43.3722 0.00826071 42.3193 0.444513 41.543 1.22086C40.7666 1.9972 40.3303 3.05006 40.3301 4.14798C40.3315 5.00394 40.598 5.83845 41.0929 6.5368C41.5878 7.23516 42.287 7.7631 43.0941 8.048L43.0591 8.26801L43.186 18.389C35.915 19.816 38.4371 17.406 39.8571 13.71C40.0507 12.8219 39.987 11.897 39.6733 11.0439C39.3596 10.1909 38.8089 9.445 38.0861 8.89398C35.9407 7.43865 33.2234 7.71632 29.9341 9.72699C20.9084 14.6201 11.1278 17.9686 0.99707 19.634C8.22007 24.795 16.525 21.763 24.623 18.834C19.416 21.2292 13.9353 22.9775 8.3031 24.04C14.3031 27.04 22.353 23.264 28.118 20.781C23.6074 23.1863 18.848 25.0925 13.9241 26.466C20.1241 28.745 27.2531 24.998 32.8671 22.208C28.7989 24.6692 24.4923 26.7129 20.0131 28.308C26.3901 29.837 32.895 26.339 38.462 23.348C34.7559 25.7529 30.8328 27.8055 26.744 29.479C33.619 30.239 38.2671 31.12 41.8441 26.268C43.3921 24.174 43.274 25.754 43.28 26.345L43.603 44.854C39.7701 43.2285 36.1329 41.1759 32.7601 38.735C32.5479 38.7661 32.3446 38.842 32.1639 38.9576C31.9833 39.0732 31.8292 39.2259 31.712 39.4056C31.5949 39.5853 31.5173 39.7878 31.4844 39.9998C31.4514 40.2117 31.464 40.4283 31.5211 40.635C30.0371 38.835 34.148 37.089 35.348 36.412C36.4441 36.1521 37.4872 35.7049 38.431 35.09C39.4313 34.7589 40.3353 34.1879 41.0641 33.427C41.2508 33.2258 41.3682 32.97 41.3992 32.6973C41.4301 32.4245 41.373 32.1489 41.2361 31.911C41.099 31.6727 40.8888 31.485 40.6366 31.3756C40.3844 31.2663 40.1037 31.2411 39.8361 31.304C38.7011 31.5633 37.5319 31.639 36.373 31.528C36.0606 31.5454 35.7566 31.6359 35.4855 31.7922C35.2144 31.9485 34.9838 32.1663 34.8121 32.428C33.0415 33.7173 31.3987 34.979 29.884 36.213C26.893 39.52 34.1 43.739 36.415 44.783C37.8801 45.6067 39.3935 46.3414 40.947 46.983C39.0097 47.7236 36.9987 48.593 34.9141 49.591C34.5756 49.8128 34.2978 50.1155 34.1057 50.4717C33.9136 50.8279 33.8134 51.2263 33.8141 51.631C33.8102 52.0137 33.9105 52.3903 34.1042 52.7205C34.298 53.0506 34.578 53.3218 34.9141 53.505C36.4797 54.3188 38.1452 54.9239 39.868 55.305C37.4134 56.0777 36.0761 57.0533 35.8561 58.232C35.2941 60.709 39.7051 61.832 41.5281 62.356C39.3227 63.2847 38.1267 64.2793 37.9401 65.34C37.7041 67.715 40.589 68.829 42.421 69.426C40.196 70.515 39.414 71.705 39.405 72.774C39.383 74.319 40.4421 75.608 43.0341 76.869C41.0551 77.855 40.248 79.062 40.165 80.262C40.053 81.954 41.9431 83.055 43.0381 83.811C40.6601 86.942 41.7711 89.411 44.1901 91.899L44.222 94.468C44.2188 94.5576 44.2512 94.6448 44.3121 94.7106C44.373 94.7764 44.4575 94.8153 44.5471 94.819C44.6371 94.8156 44.7221 94.7768 44.7837 94.7111C44.8453 94.6454 44.8785 94.5581 44.8761 94.468L44.9081 91.899L44.994 86.971L45.3071 91.51C47.2891 89.349 48.3741 85.982 46.2581 83.923C44.8781 84.9275 43.8282 86.3199 43.2421 87.923C43.3821 82.877 53.9311 81.453 46.9091 77.361C46.1241 77.853 44.898 78.484 44.03 79.091L44.0621 81.903C43.3711 81.522 42.7955 80.9616 42.3961 80.281L41.608 80.83C41.8354 80.3933 42.1585 80.0135 42.5531 79.719C44.5921 77.766 49.7381 76.058 49.6931 72.774C49.6831 71.794 49.0931 71.047 47.2771 70.09C46.1095 70.6392 44.9922 71.2898 43.9381 72.034L43.9761 74.934C43.0808 74.4551 42.2629 73.8439 41.55 73.121L40.806 73.641C41.3342 72.8308 42.1003 72.2041 42.999 71.847C44.3282 70.9604 45.7303 70.1884 47.1901 69.539L47.196 69.552C48.796 68.61 51.3421 67.465 51.1541 65.342C50.9911 64.401 50.1351 63.558 48.4091 62.734C47.2761 63.226 45.967 63.755 43.848 64.672L43.8831 67.672C42.711 67.2263 41.6041 66.6253 40.592 65.885L39.4111 66.447C40.2398 65.5375 41.3106 64.8832 42.498 64.561C43.092 64.328 44.6111 63.696 46.2291 63.054C49.5291 61.742 53.5611 59.936 53.2391 58.234C53.0505 57.2187 52.0354 56.3546 50.1941 55.642C48.9491 56.156 46.3061 56.494 43.7561 57.407L43.7971 60.615C42.1165 60.1714 40.4831 59.5652 38.92 58.805L37.343 59.466C38.757 57.893 48.256 55.578 50.056 55.116C51.4827 54.7209 52.8655 54.1819 54.1831 53.507C54.5187 53.3232 54.7981 53.0519 54.9918 52.7219C55.1855 52.3919 55.2862 52.0156 55.2831 51.633C55.283 51.2285 55.1825 50.8303 54.9905 50.4742C54.7985 50.1181 54.5211 49.8153 54.1831 49.593C52.3481 48.715 50.621 47.956 48.91 47.282C47.91 47.732 46.8101 48.268 45.7531 48.782C45.0151 49.143 44.3011 49.487 43.6591 49.787L43.707 53.509C41.8483 53.0865 40.0161 52.5546 38.2201 51.916L35.743 52.678ZM45.775 19.314C45.759 20.3 46.3811 20.527 47.9751 20.714C52.0831 21.199 54.3271 19.574 51.1091 15.444C54.1291 21.071 48.4821 19.909 45.7761 19.309L45.775 19.314ZM43.1931 19.272C43.2121 20.408 41.8751 20.648 40.2731 20.772C36.5161 21.056 34.611 19.396 37.681 15.451C34.661 21.078 40.4871 19.875 43.1931 19.275V19.272ZM57.6681 12.556C56.7861 11.9861 55.7948 11.6065 54.7577 11.4415C53.7206 11.2765 52.6604 11.3298 51.645 11.598C52.5644 9.89066 54.4311 9.71198 57.2451 11.062C65.4801 15.01 72.6171 18.135 82.8881 20.184C73.2961 19.21 65.301 16.054 57.666 12.556H57.6681ZM43.624 1.08499C44.85 0.672991 46.0241 0.870994 46.2451 1.52499C46.4661 2.17899 45.245 1.85698 44.02 2.26898C42.795 2.68098 42.02 3.66899 41.795 3.01599C41.57 2.36299 42.395 1.49699 43.624 1.08499ZM37.6301 11.599C36.7108 9.89167 34.844 9.71299 32.03 11.063C23.798 15.011 16.6611 18.136 6.39014 20.185C15.2981 19.285 22.8281 16.492 29.9711 13.297C32.7191 12.071 34.3601 10.76 37.6351 11.597L37.6301 11.599ZM45.4561 49.262L45.4021 53.494C48.6101 52.594 52.9381 51.802 53.4811 50.529C53.0917 50.8282 52.644 51.0427 52.1667 51.1586C51.6895 51.2745 51.1934 51.2892 50.7101 51.202C49.3101 50.778 47.601 49.957 45.457 49.261L45.4561 49.262ZM45.3561 56.954L45.3121 60.602C46.3361 60.337 52.0121 58.61 51.9351 57.402C51.3368 57.8582 50.6426 58.1724 49.905 58.321C48.871 58.171 47.3201 57.405 45.3561 56.958V56.954ZM45.2661 64.081L45.222 67.659C46.014 67.343 49.622 65.687 49.483 64.633C49.1972 64.9937 48.8237 65.275 48.3981 65.45C47.9321 65.35 46.5561 64.496 45.2671 64.081H45.2661ZM45.1771 71.393L45.1331 75.086C46.3591 74.416 47.9741 73.398 48.3091 72.354C48.0905 72.5999 47.8392 72.8146 47.5621 72.992C46.8427 72.3543 46.0408 71.8161 45.1781 71.392L45.1771 71.393ZM45.077 78.862L45.0391 81.891C46.7821 80.924 47.372 80.037 47.181 79.245C47.1303 79.5349 46.9801 79.7981 46.7561 79.989C46.248 79.5417 45.6835 79.1628 45.077 78.862Z" fill="#5854F7"/>
<path d="M73.1862 37.8576H76.9788L80.9845 47.6303H81.155L85.1606 37.8576H88.9532V52.403H85.9703V42.9357H85.8496L82.0853 52.332H80.0541L76.2899 42.9002H76.1692V52.403H73.1862V37.8576ZM96.4018 52.6161C95.2796 52.6161 94.3137 52.3888 93.504 51.9343C92.6991 51.475 92.0788 50.8263 91.6432 49.9882C91.2076 49.1454 90.9898 48.1488 90.9898 46.9982C90.9898 45.876 91.2076 44.8912 91.6432 44.0436C92.0788 43.1961 92.692 42.5356 93.4827 42.0621C94.2782 41.5886 95.2109 41.3519 96.281 41.3519C97.0007 41.3519 97.6707 41.4679 98.291 41.6999C98.916 41.9272 99.4605 42.2704 99.9245 42.7297C100.393 43.189 100.758 43.7667 101.018 44.4627C101.279 45.154 101.409 45.9636 101.409 46.8917V47.7226H92.1972V45.8476H98.5608C98.5608 45.412 98.4661 45.0261 98.2768 44.6899C98.0874 44.3538 97.8246 44.091 97.4884 43.9016C97.157 43.7075 96.7711 43.6104 96.3307 43.6104C95.8715 43.6104 95.4643 43.7169 95.1091 43.93C94.7588 44.1383 94.4841 44.4201 94.2853 44.7752C94.0864 45.1256 93.9846 45.5162 93.9799 45.947V47.7297C93.9799 48.2695 94.0793 48.7359 94.2782 49.1289C94.4818 49.5219 94.7682 49.8249 95.1376 50.038C95.5069 50.251 95.9448 50.3576 96.4515 50.3576C96.7876 50.3576 97.0954 50.3102 97.3748 50.2155C97.6541 50.1208 97.8932 49.9788 98.0921 49.7894C98.291 49.6 98.4425 49.368 98.5466 49.0934L101.345 49.278C101.203 49.9504 100.912 50.5375 100.471 51.0394C100.036 51.5365 99.4723 51.9248 98.781 52.2042C98.0945 52.4788 97.3014 52.6161 96.4018 52.6161ZM107.403 52.5806C106.575 52.5806 105.824 52.3675 105.152 51.9414C104.484 51.5105 103.954 50.8784 103.561 50.0451C103.173 49.207 102.978 48.1795 102.978 46.9627C102.978 45.7127 103.18 44.6734 103.582 43.8448C103.985 43.0114 104.52 42.3888 105.187 41.9769C105.86 41.5602 106.596 41.3519 107.396 41.3519C108.007 41.3519 108.516 41.456 108.923 41.6644C109.335 41.868 109.666 42.1237 109.917 42.4314C110.173 42.7345 110.367 43.0327 110.5 43.3263H110.592V37.8576H113.611V52.403H110.628V50.6559H110.5C110.358 50.9589 110.156 51.2595 109.896 51.5578C109.64 51.8514 109.307 52.0952 108.895 52.2894C108.487 52.4835 107.99 52.5806 107.403 52.5806ZM108.362 50.1729C108.85 50.1729 109.262 50.0403 109.598 49.7752C109.939 49.5053 110.199 49.1289 110.379 48.6459C110.564 48.163 110.656 47.5971 110.656 46.9485C110.656 46.2998 110.566 45.7363 110.386 45.2581C110.206 44.7799 109.946 44.4106 109.605 44.1502C109.264 43.8898 108.85 43.7595 108.362 43.7595C107.865 43.7595 107.446 43.8945 107.105 44.1644C106.764 44.4343 106.506 44.8083 106.331 45.2865C106.156 45.7648 106.068 46.3187 106.068 46.9485C106.068 47.5829 106.156 48.144 106.331 48.6317C106.511 49.1147 106.769 49.4935 107.105 49.7681C107.446 50.038 107.865 50.1729 108.362 50.1729ZM128.989 42.9499H125.878C125.821 42.5474 125.705 42.1899 125.53 41.8774C125.355 41.5602 125.13 41.2903 124.855 41.0678C124.581 40.8452 124.263 40.6748 123.904 40.5564C123.548 40.4381 123.163 40.3789 122.746 40.3789C121.993 40.3789 121.337 40.5659 120.779 40.9399C120.22 41.3093 119.787 41.849 119.479 42.5593C119.171 43.2648 119.017 44.1218 119.017 45.1303C119.017 46.1672 119.171 47.0384 119.479 47.7439C119.791 48.4494 120.227 48.9821 120.786 49.3419C121.344 49.7018 121.991 49.8817 122.725 49.8817C123.136 49.8817 123.518 49.8273 123.868 49.7184C124.223 49.6095 124.538 49.4508 124.813 49.2425C125.087 49.0294 125.315 48.7714 125.494 48.4684C125.679 48.1653 125.807 47.8197 125.878 47.4314L128.989 47.4456C128.908 48.1132 128.707 48.7572 128.385 49.3774C128.068 49.993 127.639 50.5446 127.1 51.0323C126.565 51.5152 125.925 51.8988 125.182 52.1828C124.443 52.4622 123.608 52.6019 122.675 52.6019C121.377 52.6019 120.217 52.3083 119.195 51.7212C118.177 51.1341 117.372 50.2842 116.78 49.1715C116.193 48.0588 115.899 46.7117 115.899 45.1303C115.899 43.5441 116.198 42.1947 116.794 41.082C117.391 39.9693 118.2 39.1218 119.223 38.5394C120.246 37.9523 121.396 37.6587 122.675 37.6587C123.518 37.6587 124.299 37.7771 125.019 38.0138C125.743 38.2506 126.385 38.5962 126.943 39.0507C127.502 39.5006 127.957 40.0522 128.307 40.7056C128.662 41.359 128.889 42.1071 128.989 42.9499ZM134.248 52.609C133.552 52.609 132.932 52.4882 132.387 52.2468C131.843 52.0006 131.412 51.6383 131.095 51.1601C130.782 50.6772 130.626 50.0758 130.626 49.3561C130.626 48.7501 130.737 48.2411 130.96 47.8292C131.182 47.4172 131.485 47.0858 131.869 46.8348C132.252 46.5839 132.688 46.3945 133.176 46.2667C133.668 46.1388 134.184 46.0488 134.724 45.9968C135.358 45.9305 135.87 45.8689 136.258 45.8121C136.646 45.7506 136.928 45.6606 137.103 45.5422C137.278 45.4238 137.366 45.2487 137.366 45.0167V44.974C137.366 44.5242 137.224 44.1762 136.94 43.93C136.66 43.6838 136.263 43.5607 135.747 43.5607C135.202 43.5607 134.769 43.6814 134.447 43.9229C134.125 44.1596 133.912 44.4579 133.808 44.8178L131.009 44.5905C131.151 43.9276 131.431 43.3547 131.847 42.8718C132.264 42.3841 132.801 42.01 133.46 41.7496C134.123 41.4845 134.89 41.3519 135.761 41.3519C136.367 41.3519 136.947 41.4229 137.501 41.5649C138.06 41.707 138.554 41.9272 138.985 42.2255C139.421 42.5238 139.764 42.9073 140.015 43.376C140.266 43.84 140.391 44.3964 140.391 45.0451V52.403H137.522V50.8902H137.437C137.262 51.2311 137.027 51.5318 136.734 51.7922C136.44 52.0479 136.087 52.2491 135.676 52.3959C135.264 52.538 134.788 52.609 134.248 52.609ZM135.114 50.5209C135.56 50.5209 135.953 50.4333 136.293 50.2581C136.634 50.0782 136.902 49.8367 137.096 49.5337C137.29 49.2307 137.387 48.8874 137.387 48.5039V47.3462C137.292 47.4077 137.162 47.4646 136.997 47.5167C136.836 47.564 136.653 47.609 136.45 47.6516C136.246 47.6895 136.042 47.725 135.839 47.7581C135.635 47.7865 135.451 47.8126 135.285 47.8363C134.93 47.8883 134.62 47.9712 134.355 48.0848C134.089 48.1985 133.883 48.3524 133.737 48.5465C133.59 48.7359 133.516 48.9726 133.516 49.2567C133.516 49.6686 133.666 49.9835 133.964 50.2013C134.267 50.4144 134.65 50.5209 135.114 50.5209ZM142.739 52.403V41.4939H145.672V43.3973H145.786C145.984 42.7202 146.318 42.2089 146.787 41.8632C147.256 41.5129 147.796 41.3377 148.406 41.3377C148.558 41.3377 148.721 41.3471 148.896 41.3661C149.072 41.385 149.226 41.4111 149.358 41.4442V44.1289C149.216 44.0863 149.02 44.0484 148.769 44.0152C148.518 43.9821 148.288 43.9655 148.08 43.9655C147.635 43.9655 147.237 44.0626 146.886 44.2567C146.541 44.4461 146.266 44.7113 146.063 45.0522C145.864 45.3931 145.764 45.7861 145.764 46.2311V52.403H142.739ZM155.386 52.6161C154.264 52.6161 153.298 52.3888 152.488 51.9343C151.683 51.475 151.063 50.8263 150.628 49.9882C150.192 49.1454 149.974 48.1488 149.974 46.9982C149.974 45.876 150.192 44.8912 150.628 44.0436C151.063 43.1961 151.676 42.5356 152.467 42.0621C153.263 41.5886 154.195 41.3519 155.265 41.3519C155.985 41.3519 156.655 41.4679 157.275 41.6999C157.9 41.9272 158.445 42.2704 158.909 42.7297C159.378 43.189 159.742 43.7667 160.003 44.4627C160.263 45.154 160.393 45.9636 160.393 46.8917V47.7226H151.182V45.8476H157.545C157.545 45.412 157.451 45.0261 157.261 44.6899C157.072 44.3538 156.809 44.091 156.473 43.9016C156.141 43.7075 155.755 43.6104 155.315 43.6104C154.856 43.6104 154.449 43.7169 154.094 43.93C153.743 44.1383 153.469 44.4201 153.27 44.7752C153.071 45.1256 152.969 45.5162 152.964 45.947V47.7297C152.964 48.2695 153.064 48.7359 153.263 49.1289C153.466 49.5219 153.753 49.8249 154.122 50.038C154.491 50.251 154.929 50.3576 155.436 50.3576C155.772 50.3576 156.08 50.3102 156.359 50.2155C156.638 50.1208 156.878 49.9788 157.076 49.7894C157.275 49.6 157.427 49.368 157.531 49.0934L160.329 49.278C160.187 49.9504 159.896 50.5375 159.456 51.0394C159.02 51.5365 158.457 51.9248 157.765 52.2042C157.079 52.4788 156.286 52.6161 155.386 52.6161Z" fill="black"/>
<path d="M73.6834 61.8576H75.7856L80.7288 73.9314H80.8993L85.8425 61.8576H87.9447V76.403H86.297V65.3519H86.155L81.6095 76.403H80.0186L75.4731 65.3519H75.3311V76.403H73.6834V61.8576ZM95.8229 76.6303C94.7718 76.6303 93.8651 76.3983 93.1027 75.9343C92.3452 75.4655 91.7604 74.8121 91.3485 73.974C90.9413 73.1312 90.7377 72.1511 90.7377 71.0337C90.7377 69.9163 90.9413 68.9314 91.3485 68.0792C91.7604 67.2221 92.3333 66.5545 93.0672 66.0763C93.8059 65.5934 94.6676 65.3519 95.6525 65.3519C96.2206 65.3519 96.7817 65.4466 97.3357 65.636C97.8897 65.8254 98.3939 66.1331 98.8485 66.5593C99.303 66.9807 99.6653 67.5394 99.9351 68.2354C100.205 68.9314 100.34 69.7884 100.34 70.8064V71.5167H91.9309V70.0678H98.6354C98.6354 69.4523 98.5123 68.903 98.2661 68.4201C98.0246 67.9371 97.679 67.556 97.2292 67.2766C96.7841 66.9972 96.2585 66.8576 95.6525 66.8576C94.9849 66.8576 94.4072 67.0233 93.9195 67.3547C93.4366 67.6814 93.0649 68.1076 92.8045 68.6331C92.544 69.1587 92.4138 69.7221 92.4138 70.3235V71.2894C92.4138 72.1132 92.5559 72.8116 92.84 73.3845C93.1288 73.9527 93.5289 74.386 94.0403 74.6843C94.5516 74.9778 95.1458 75.1246 95.8229 75.1246C96.2633 75.1246 96.661 75.0631 97.0161 74.9399C97.376 74.8121 97.6861 74.6227 97.9465 74.3718C98.2069 74.1161 98.4081 73.7988 98.5502 73.4201L100.17 73.8746C99.9991 74.4238 99.7126 74.9068 99.3101 75.3235C98.9077 75.7354 98.4105 76.0574 97.8187 76.2894C97.2268 76.5167 96.5616 76.6303 95.8229 76.6303ZM107.009 76.6303C106.1 76.6303 105.297 76.4006 104.601 75.9414C103.905 75.4774 103.361 74.8239 102.968 73.9811C102.575 73.1336 102.378 72.1322 102.378 70.9769C102.378 69.831 102.575 68.8367 102.968 67.9939C103.361 67.1511 103.908 66.5001 104.608 66.0408C105.309 65.5815 106.119 65.3519 107.037 65.3519C107.748 65.3519 108.309 65.4703 108.721 65.707C109.137 65.939 109.455 66.2042 109.672 66.5024C109.895 66.796 110.068 67.0375 110.191 67.2269H110.333V61.8576H112.009V76.403H110.39V74.7269H110.191C110.068 74.9257 109.893 75.1767 109.665 75.4797C109.438 75.778 109.114 76.0455 108.692 76.2823C108.271 76.5143 107.71 76.6303 107.009 76.6303ZM107.236 75.1246C107.909 75.1246 108.477 74.9494 108.941 74.599C109.405 74.2439 109.758 73.7539 109.999 73.1289C110.241 72.4991 110.361 71.7723 110.361 70.9485C110.361 70.1341 110.243 69.4215 110.006 68.8107C109.769 68.1952 109.419 67.7169 108.955 67.376C108.491 67.0304 107.918 66.8576 107.236 66.8576C106.526 66.8576 105.934 67.0399 105.461 67.4044C104.992 67.7643 104.639 68.2543 104.402 68.8746C104.17 69.4901 104.054 70.1814 104.054 70.9485C104.054 71.725 104.173 72.4305 104.41 73.0649C104.651 73.6947 105.006 74.1966 105.475 74.5706C105.948 74.9399 106.536 75.1246 107.236 75.1246ZM115.312 76.403V65.4939H116.988V76.403H115.312ZM116.164 63.6757C115.837 63.6757 115.555 63.5645 115.319 63.3419C115.087 63.1194 114.971 62.8519 114.971 62.5394C114.971 62.2269 115.087 61.9594 115.319 61.7368C115.555 61.5143 115.837 61.403 116.164 61.403C116.491 61.403 116.77 61.5143 117.002 61.7368C117.239 61.9594 117.357 62.2269 117.357 62.5394C117.357 62.8519 117.239 63.1194 117.002 63.3419C116.77 63.5645 116.491 63.6757 116.164 63.6757ZM124.489 76.6303C123.467 76.6303 122.586 76.3888 121.847 75.9059C121.109 75.4229 120.541 74.7577 120.143 73.9101C119.745 73.0626 119.546 72.0943 119.546 71.0053C119.546 69.8973 119.75 68.9196 120.157 68.072C120.569 67.2198 121.142 66.5545 121.876 66.0763C122.614 65.5934 123.476 65.3519 124.461 65.3519C125.228 65.3519 125.919 65.4939 126.535 65.778C127.15 66.0621 127.655 66.4598 128.048 66.9712C128.441 67.4826 128.685 68.0792 128.779 68.761H127.103C126.975 68.2638 126.691 67.8235 126.251 67.4399C125.815 67.0517 125.228 66.8576 124.489 66.8576C123.836 66.8576 123.263 67.028 122.771 67.3689C122.283 67.7051 121.902 68.181 121.627 68.7965C121.357 69.4073 121.222 70.1246 121.222 70.9485C121.222 71.7913 121.355 72.5252 121.62 73.1502C121.89 73.7752 122.269 74.2605 122.757 74.6061C123.249 74.9518 123.827 75.1246 124.489 75.1246C124.925 75.1246 125.32 75.0488 125.676 74.8973C126.031 74.7458 126.331 74.528 126.578 74.2439C126.824 73.9598 126.999 73.6189 127.103 73.2212H128.779C128.685 73.8651 128.45 74.4452 128.076 74.9613C127.707 75.4726 127.217 75.8798 126.606 76.1828C126 76.4811 125.294 76.6303 124.489 76.6303ZM134.44 76.6587C133.748 76.6587 133.121 76.5285 132.558 76.2681C131.994 76.0029 131.547 75.6218 131.215 75.1246C130.884 74.6227 130.718 74.0167 130.718 73.3064C130.718 72.6814 130.841 72.1748 131.087 71.7865C131.334 71.3935 131.663 71.0858 132.075 70.8632C132.487 70.6407 132.941 70.475 133.438 70.3661C133.94 70.2524 134.444 70.1625 134.951 70.0962C135.614 70.011 136.151 69.947 136.563 69.9044C136.98 69.8571 137.283 69.779 137.472 69.6701C137.667 69.5612 137.764 69.3718 137.764 69.1019V69.0451C137.764 68.3443 137.572 67.7998 137.188 67.4115C136.81 67.0233 136.234 66.8292 135.462 66.8292C134.662 66.8292 134.035 67.0043 133.58 67.3547C133.126 67.7051 132.806 68.0792 132.622 68.4769L131.031 67.9087C131.315 67.2458 131.694 66.7297 132.167 66.3604C132.645 65.9863 133.166 65.7259 133.73 65.5792C134.298 65.4276 134.856 65.3519 135.406 65.3519C135.756 65.3519 136.159 65.3945 136.613 65.4797C137.072 65.5602 137.515 65.7283 137.941 65.984C138.372 66.2397 138.73 66.6256 139.014 67.1417C139.298 67.6577 139.44 68.349 139.44 69.2155V76.403H137.764V74.9257H137.678C137.565 75.1625 137.375 75.4158 137.11 75.6857C136.845 75.9556 136.492 76.1852 136.052 76.3746C135.612 76.564 135.074 76.6587 134.44 76.6587ZM134.695 75.153C135.358 75.153 135.917 75.0228 136.372 74.7624C136.831 74.502 137.176 74.1658 137.409 73.7539C137.645 73.3419 137.764 72.9087 137.764 72.4542V70.9201C137.693 71.0053 137.536 71.0834 137.295 71.1544C137.058 71.2207 136.784 71.2799 136.471 71.332C136.163 71.3793 135.863 71.422 135.569 71.4598C135.28 71.493 135.046 71.5214 134.866 71.5451C134.43 71.6019 134.023 71.6942 133.644 71.822C133.27 71.9452 132.967 72.1322 132.735 72.3831C132.508 72.6293 132.394 72.9655 132.394 73.3917C132.394 73.974 132.61 74.4144 133.041 74.7127C133.476 75.0062 134.028 75.153 134.695 75.153ZM144.175 61.8576V76.403H142.499V61.8576H144.175ZM164.802 66.403H163.041C162.936 65.8964 162.754 65.4513 162.494 65.0678C162.238 64.6843 161.926 64.3623 161.556 64.1019C161.192 63.8367 160.787 63.6379 160.342 63.5053C159.897 63.3727 159.433 63.3064 158.95 63.3064C158.069 63.3064 157.271 63.529 156.556 63.974C155.846 64.4191 155.28 65.0749 154.859 65.9414C154.442 66.8078 154.234 67.8708 154.234 69.1303C154.234 70.3898 154.442 71.4527 154.859 72.3192C155.28 73.1857 155.846 73.8415 156.556 74.2865C157.271 74.7316 158.069 74.9542 158.95 74.9542C159.433 74.9542 159.897 74.8879 160.342 74.7553C160.787 74.6227 161.192 74.4262 161.556 74.1658C161.926 73.9006 162.238 73.5763 162.494 73.1928C162.754 72.8045 162.936 72.3595 163.041 71.8576H164.802C164.669 72.6009 164.428 73.2662 164.078 73.8533C163.727 74.4404 163.292 74.9399 162.771 75.3519C162.25 75.7591 161.665 76.0692 161.016 76.2823C160.373 76.4953 159.684 76.6019 158.95 76.6019C157.709 76.6019 156.606 76.2988 155.64 75.6928C154.674 75.0867 153.914 74.225 153.36 73.1076C152.806 71.9901 152.529 70.6644 152.529 69.1303C152.529 67.5962 152.806 66.2704 153.36 65.153C153.914 64.0356 154.674 63.1738 155.64 62.5678C156.606 61.9617 157.709 61.6587 158.95 61.6587C159.684 61.6587 160.373 61.7652 161.016 61.9783C161.665 62.1914 162.25 62.5039 162.771 62.9158C163.292 63.323 163.727 63.8202 164.078 64.4073C164.428 64.9897 164.669 65.6549 164.802 66.403ZM171.995 76.6303C170.944 76.6303 170.037 76.3983 169.275 75.9343C168.517 75.4655 167.932 74.8121 167.52 73.974C167.113 73.1312 166.91 72.1511 166.91 71.0337C166.91 69.9163 167.113 68.9314 167.52 68.0792C167.932 67.2221 168.505 66.5545 169.239 66.0763C169.978 65.5934 170.839 65.3519 171.824 65.3519C172.393 65.3519 172.954 65.4466 173.508 65.636C174.062 65.8254 174.566 66.1331 175.02 66.5593C175.475 66.9807 175.837 67.5394 176.107 68.2354C176.377 68.9314 176.512 69.7884 176.512 70.8064V71.5167H168.103V70.0678H174.807C174.807 69.4523 174.684 68.903 174.438 68.4201C174.197 67.9371 173.851 67.556 173.401 67.2766C172.956 66.9972 172.43 66.8576 171.824 66.8576C171.157 66.8576 170.579 67.0233 170.091 67.3547C169.608 67.6814 169.237 68.1076 168.976 68.6331C168.716 69.1587 168.586 69.7221 168.586 70.3235V71.2894C168.586 72.1132 168.728 72.8116 169.012 73.3845C169.301 73.9527 169.701 74.386 170.212 74.6843C170.723 74.9778 171.318 75.1246 171.995 75.1246C172.435 75.1246 172.833 75.0631 173.188 74.9399C173.548 74.8121 173.858 74.6227 174.118 74.3718C174.379 74.1161 174.58 73.7988 174.722 73.4201L176.341 73.8746C176.171 74.4238 175.884 74.9068 175.482 75.3235C175.08 75.7354 174.582 76.0574 173.991 76.2894C173.399 76.5167 172.733 76.6303 171.995 76.6303ZM180.738 69.8405V76.403H179.062V65.4939H180.681V67.1985H180.823C181.079 66.6445 181.467 66.1994 181.988 65.8632C182.509 65.5223 183.181 65.3519 184.005 65.3519C184.743 65.3519 185.39 65.5034 185.944 65.8064C186.498 66.1047 186.929 66.5593 187.236 67.1701C187.544 67.7761 187.698 68.5432 187.698 69.4712V76.403H186.022V69.5848C186.022 68.7278 185.799 68.0602 185.354 67.582C184.909 67.099 184.298 66.8576 183.522 66.8576C182.987 66.8576 182.509 66.9736 182.087 67.2056C181.67 67.4376 181.341 67.7761 181.1 68.2212C180.858 68.6663 180.738 69.206 180.738 69.8405ZM195.505 65.4939V66.9144H189.852V65.4939H195.505ZM191.499 62.8803H193.176V73.278C193.176 73.7515 193.244 74.1066 193.382 74.3434C193.524 74.5754 193.703 74.7316 193.921 74.8121C194.144 74.8879 194.378 74.9257 194.624 74.9257C194.809 74.9257 194.961 74.9163 195.079 74.8973C195.197 74.8737 195.292 74.8547 195.363 74.8405L195.704 76.3462C195.59 76.3888 195.432 76.4314 195.228 76.474C195.025 76.5214 194.766 76.5451 194.454 76.5451C193.98 76.5451 193.516 76.4433 193.062 76.2397C192.612 76.0361 192.238 75.7259 191.94 75.3093C191.646 74.8926 191.499 74.367 191.499 73.7326V62.8803ZM202.483 76.6303C201.432 76.6303 200.525 76.3983 199.763 75.9343C199.005 75.4655 198.421 74.8121 198.009 73.974C197.601 73.1312 197.398 72.1511 197.398 71.0337C197.398 69.9163 197.601 68.9314 198.009 68.0792C198.421 67.2221 198.993 66.5545 199.727 66.0763C200.466 65.5934 201.328 65.3519 202.313 65.3519C202.881 65.3519 203.442 65.4466 203.996 65.636C204.55 65.8254 205.054 66.1331 205.509 66.5593C205.963 66.9807 206.325 67.5394 206.595 68.2354C206.865 68.9314 207 69.7884 207 70.8064V71.5167H198.591V70.0678H205.296C205.296 69.4523 205.172 68.903 204.926 68.4201C204.685 67.9371 204.339 67.556 203.889 67.2766C203.444 66.9972 202.919 66.8576 202.313 66.8576C201.645 66.8576 201.067 67.0233 200.58 67.3547C200.097 67.6814 199.725 68.1076 199.465 68.6331C199.204 69.1587 199.074 69.7221 199.074 70.3235V71.2894C199.074 72.1132 199.216 72.8116 199.5 73.3845C199.789 73.9527 200.189 74.386 200.7 74.6843C201.212 74.9778 201.806 75.1246 202.483 75.1246C202.923 75.1246 203.321 75.0631 203.676 74.9399C204.036 74.8121 204.346 74.6227 204.607 74.3718C204.867 74.1161 205.068 73.7988 205.21 73.4201L206.83 73.8746C206.659 74.4238 206.373 74.9068 205.97 75.3235C205.568 75.7354 205.071 76.0574 204.479 76.2894C203.887 76.5167 203.222 76.6303 202.483 76.6303ZM209.55 76.403V65.4939H211.169V67.1417H211.283C211.482 66.6019 211.842 66.1639 212.362 65.8277C212.883 65.4916 213.47 65.3235 214.124 65.3235C214.247 65.3235 214.401 65.3258 214.585 65.3306C214.77 65.3353 214.91 65.3424 215.004 65.3519V67.0564C214.948 67.0422 214.817 67.0209 214.614 66.9925C214.415 66.9594 214.204 66.9428 213.982 66.9428C213.451 66.9428 212.978 67.0541 212.561 67.2766C212.149 67.4944 211.823 67.7974 211.581 68.1857C211.344 68.5692 211.226 69.0072 211.226 69.4996V76.403H209.55Z" fill="black"/>
</svg>
